<svg width="32" height="32" viewBox="0 0 32 32" fill="none" xmlns="http://www.w3.org/2000/svg">
  <circle cx="16" cy="16" r="15" fill="#1E40AF" stroke="#FFC107" stroke-width="2"/>
  <path d="M16 7C11.0294 7 7 11.0294 7 16C7 20.9706 11.0294 25 16 25C20.9706 25 25 20.9706 25 16C25 11.0294 20.9706 7 16 7ZM16 8.5C20.1421 8.5 23.5 11.8579 23.5 16C23.5 20.1421 20.1421 23.5 16 23.5C11.8579 23.5 8.5 20.1421 8.5 16C8.5 11.8579 11.8579 8.5 16 8.5ZM16 11C15.7239 11 15.5 11.2239 15.5 11.5V16.5C15.5 16.7761 15.7239 17 16 17H19C19.2761 17 19.5 16.7761 19.5 16.5C19.5 16.2239 19.2761 16 19 16H16.5V11.5C16.5 11.2239 16.2761 11 16 11Z" fill="#FFC107"/>
</svg>